<?xml version="1.0" standalone="no"?><!DOCTYPE svg PUBLIC "-//W3C//DTD SVG 1.1//EN" "http://www.w3.org/Graphics/SVG/1.1/DTD/svg11.dtd"><svg t="1558059297019" class="icon" style="" viewBox="0 0 1028 1024" version="1.1" xmlns="http://www.w3.org/2000/svg" p-id="2765" xmlns:xlink="http://www.w3.org/1999/xlink" width="200.78125" height="200"><defs><style type="text/css"></style></defs><path d="M514.554 62c-248.709 0-450.284 200.379-450.284 447.598s201.586 447.594 450.283 447.594c248.674 0 450.261-200.375 450.261-447.594 0.001-247.211-201.587-447.598-450.261-447.598zM514.479 899.037c-214.814 0-388.955-174.142-388.955-388.955 0-214.814 174.142-388.955 388.955-388.955 214.813 0 388.955 174.142 388.955 388.955 0 214.814-174.142 388.955-388.955 388.955zM280.224 507.447c0 31.312 25.384 56.695 56.695 56.695s56.695-25.384 56.695-56.695c0-31.312-25.384-56.695-56.695-56.695-31.312 0-56.695 25.384-56.695 56.695zM470.086 507.447c0 31.312 25.384 56.695 56.695 56.695s56.695-25.384 56.695-56.695c0-31.312-25.384-56.695-56.695-56.695-31.312 0-56.695 25.384-56.695 56.695zM641.49 507.447c0 31.312 25.384 56.695 56.695 56.695s56.695-25.384 56.695-56.695c0-31.312-25.384-56.695-56.695-56.695-31.312 0-56.695 25.384-56.695 56.695z" p-id="2766" fill="#2c2c2c"></path></svg>